<?xml version="1.0" standalone="no"?>
<!DOCTYPE svg PUBLIC "-//W3C//DTD SVG 20010904//EN"
 "http://www.w3.org/TR/2001/REC-SVG-20010904/DTD/svg10.dtd">
<svg version="1.0" xmlns="http://www.w3.org/2000/svg"
 width="300.000000pt" height="32.000000pt" viewBox="0 0 300.000000 32.000000"
 preserveAspectRatio="xMidYMid meet">
<metadata>
Created by potrace 1.10, written by Peter Selinger 2001-2011
</metadata>
<g transform="translate(0.000000,32.000000) scale(0.100000,-0.100000)"
fill="#000000" stroke="none">
<path d="M1366 274 c-4 -10 -2 -22 4 -28 7 -7 10 -3 10 13 0 17 4 22 16 17 9
-3 18 -6 20 -6 2 0 4 -4 4 -9 0 -5 -15 -15 -32 -22 -32 -13 -29 -14 65 -19
145 -7 227 -2 227 16 0 11 -4 12 -19 4 -26 -13 -31 -13 -31 5 0 9 8 14 19 12
11 -1 21 2 23 8 4 12 -32 14 -49 2 -6 -4 -14 -3 -18 3 -10 15 -25 2 -26 -23
-1 -20 -1 -20 -8 3 -5 17 -14 24 -31 24 -17 0 -26 -7 -31 -24 -7 -23 -7 -23
-8 -3 -1 27 -19 40 -27 18 -6 -14 -7 -14 -18 1 -18 24 -82 30 -90 8z"/>
<path d="M760 110 l0 -80 365 0 366 0 -3 78 -3 77 -362 3 -363 2 0 -80z m360
0 l0 -70 -175 0 -175 0 0 70 0 70 175 0 175 0 0 -70z m353 -3 l2 -67 -172 0
-173 0 0 70 0 70 171 -2 171 -3 1 -68z"/>
<path d="M922 108 c3 -23 38 -39 38 -19 0 6 -5 10 -11 9 -6 -2 -14 3 -17 11
-3 10 0 12 12 8 9 -4 16 -2 16 3 0 6 -9 10 -21 10 -15 0 -20 -5 -17 -22z"/>
<path d="M1280 105 c0 -18 5 -25 20 -25 15 0 20 7 20 25 0 18 -5 25 -20 25
-15 0 -20 -7 -20 -25z"/>
<path d="M22 108 l3 -73 353 -3 352 -2 0 75 0 75 -355 0 -356 0 3 -72z m348
-3 l0 -65 -165 0 -165 0 0 65 0 65 165 0 165 0 0 -65z m350 0 l0 -65 -170 0
-170 0 0 65 0 65 170 0 170 0 0 -65z"/>
<path d="M190 122 c0 -6 -2 -16 -5 -24 -3 -8 3 -13 19 -14 21 -2 23 1 17 19
-8 22 -31 36 -31 19z"/>
<path d="M530 105 c0 -18 5 -25 20 -25 15 0 20 7 20 25 0 18 -5 25 -20 25 -15
0 -20 -7 -20 -25z"/>
<path d="M1520 105 l0 -75 350 0 350 0 0 75 0 75 -350 0 -350 0 0 -75z m340 0
l0 -65 -165 0 -165 0 0 65 0 65 165 0 165 0 0 -65z m350 0 l0 -65 -165 0 -165
0 0 65 0 65 165 0 165 0 0 -65z"/>
<path d="M1680 105 c0 -20 5 -25 23 -24 19 1 19 2 3 6 -15 4 -16 7 -5 14 12 7
12 9 -1 10 -10 0 -8 3 5 9 19 8 19 9 -2 9 -18 1 -23 -5 -23 -24z"/>
<path d="M2252 103 l3 -78 358 -3 357 -2 0 80 0 80 -360 0 -361 0 3 -77z m358
2 l0 -65 -175 0 -175 0 0 65 0 65 175 0 175 0 0 -65z m350 0 l0 -65 -170 0
-170 0 0 65 0 65 170 0 170 0 0 -65z"/>
<path d="M2414 115 c-9 -23 4 -47 23 -43 9 2 18 9 21 17 3 9 -2 11 -17 6 -12
-4 -21 -2 -21 4 0 6 9 11 21 11 11 0 17 5 14 10 -9 15 -35 12 -41 -5z"/>
<path d="M2770 100 c0 -26 3 -31 10 -20 9 13 11 13 20 0 7 -11 10 -6 10 20 0
26 -3 31 -10 20 -9 -13 -11 -13 -20 0 -7 11 -10 6 -10 -20z"/>
</g>
</svg>
