<svg version="1.1" id="Layer_1" xmlns="http://www.w3.org/2000/svg" xmlns:xlink="http://www.w3.org/1999/xlink" x="0px" y="0px"
	 width="100%" viewBox="0 0 1500 589" enable-background="new 0 0 1500 589" xml:space="preserve">
<path fill="#000000" opacity="1.000000" stroke="none" 
	d="
M1023.000000,590.000000 
	C682.040710,590.000000 341.581421,590.000000 1.061069,590.000000 
	C1.061069,393.730865 1.061069,197.461716 1.061069,1.096281 
	C500.876007,1.096281 1000.752014,1.096281 1500.813965,1.096281 
	C1500.813965,197.333191 1500.813965,393.666565 1500.813965,590.000000 
	C1341.794922,590.000000 1182.647461,590.000000 1023.000000,590.000000 
M1010.843750,309.481201 
	C1010.618042,300.987549 1010.392334,292.493896 1010.032227,283.242828 
	C1009.254761,278.976227 1006.446106,277.936371 1002.464417,277.952698 
	C978.810242,278.049866 955.155518,278.011993 931.500977,277.992889 
	C924.898010,277.987549 923.025208,276.064453 923.005249,269.390167 
	C922.985840,262.893555 922.958923,256.396454 923.013794,249.900269 
	C923.064514,243.896912 925.025574,242.005814 931.065796,242.004379 
	C958.884888,241.997772 986.703979,242.010864 1014.523071,241.991653 
	C1020.234131,241.987717 1021.978455,240.253189 1021.993958,234.687836 
	C1022.015198,227.025162 1022.013489,219.362335 1021.994995,211.699646 
	C1021.981201,205.982300 1020.086914,204.020691 1014.237671,204.016190 
	C974.091553,203.985275 933.945496,203.976807 893.799377,204.021439 
	C886.451599,204.029602 881.028198,209.454010 881.022705,216.828964 
	C880.981873,271.967377 880.989319,327.105774 881.016052,382.244202 
	C881.018921,388.159729 883.934998,390.997833 889.745605,390.998688 
	C931.557495,391.004730 973.369446,391.004395 1015.181335,390.998657 
	C1021.046265,390.997864 1023.896667,388.214386 1023.953369,382.299927 
	C1024.018799,375.470734 1024.022705,368.639862 1023.953613,361.810730 
	C1023.885193,355.049683 1021.745117,353.004517 1014.915405,353.002838 
	C986.929749,352.996002 958.944092,353.003784 930.958435,352.996368 
	C924.942200,352.994781 923.058411,351.130951 923.013062,345.012512 
	C922.961304,338.016479 922.991089,331.019745 923.003113,324.023346 
	C923.014954,317.124176 924.134827,316.001923 931.081482,315.999084 
	C954.569458,315.989410 978.057434,315.985779 1001.545410,316.002716 
	C1005.850586,316.005829 1009.583069,315.292267 1010.843750,309.481201 
M698.001892,385.847504 
	C698.711975,390.011017 701.795044,390.939453 705.307495,390.972443 
	C713.972107,391.053894 722.638000,391.017090 731.303284,390.998993 
	C737.374207,390.986298 739.985596,388.367737 739.993103,382.260986 
	C740.011108,367.596558 740.120667,352.930573 739.931946,338.268585 
	C739.869690,333.432159 741.804077,331.765808 746.474365,331.948639 
	C752.796692,332.196167 759.146301,332.216736 765.464539,331.918213 
	C769.154724,331.743866 771.480957,332.783630 773.561951,336.002838 
	C784.269348,352.567383 795.302429,368.921204 806.041016,385.465973 
	C808.636902,389.465515 811.646729,391.305939 816.578064,391.109344 
	C825.895203,390.737976 835.240601,390.865326 844.568054,391.068359 
	C848.380798,391.151398 851.183167,390.426270 853.145691,386.740570 
	C855.181885,382.916687 852.862000,380.302124 851.123962,377.738342 
	C840.522888,362.100372 829.697632,346.614624 819.036621,331.016937 
	C815.514954,325.864471 816.218445,324.032684 821.751648,321.058441 
	C832.676575,315.186005 841.496155,307.236420 847.087219,295.860809 
	C852.779724,284.278961 853.769165,272.088287 853.026917,259.500946 
	C852.223328,245.872375 847.654114,233.803284 838.271667,223.829819 
	C825.812256,210.585693 809.489624,204.912842 792.141174,204.256683 
	C764.518677,203.211929 736.826843,203.941391 709.164795,204.042786 
	C702.909607,204.065704 698.530273,208.561676 697.255859,215.410614 
	C697.173157,216.067291 697.018188,216.723953 697.018066,217.380646 
	C697.004639,272.086578 696.997131,326.792480 697.041565,381.498383 
	C697.042542,382.697540 697.646606,383.896240 698.001892,385.847504 
M1405.318481,375.913361 
	C1412.122559,369.200287 1419.494263,362.963287 1425.608643,355.671875 
	C1437.208740,341.838409 1443.191650,325.220795 1444.791382,307.498352 
	C1446.725464,286.073944 1442.896362,265.550598 1431.432007,246.808517 
	C1420.279419,228.576111 1404.753174,215.696365 1384.950073,207.957291 
	C1365.572876,200.384674 1345.671143,199.088165 1325.229736,202.919861 
	C1298.514404,207.927643 1277.572754,221.931076 1262.696045,244.196518 
	C1247.879883,266.371521 1243.546509,291.140686 1248.965332,317.395142 
	C1255.099976,347.118164 1271.492432,369.314178 1298.570312,383.079071 
	C1317.539429,392.721893 1337.747437,395.625397 1359.008423,393.172272 
	C1375.779175,391.237152 1390.718262,385.274811 1405.318481,375.913361 
M1057.998779,370.496521 
	C1057.999634,374.828522 1057.945435,379.161438 1058.016602,383.492279 
	C1058.089111,387.906830 1061.027710,391.012939 1065.408936,390.967773 
	C1091.516113,390.698761 1117.635132,390.725861 1143.723755,389.858765 
	C1159.192261,389.344635 1173.546509,384.116028 1186.839111,376.091736 
	C1201.455811,367.268158 1212.743652,355.254456 1220.308960,340.048553 
	C1229.284790,322.007935 1231.772217,302.875061 1229.098145,282.847717 
	C1225.880371,258.746368 1214.424438,239.220047 1195.670044,224.561050 
	C1177.849609,210.631897 1156.834961,204.143860 1134.091064,204.021973 
	C1113.598145,203.912155 1093.104126,203.994766 1072.610596,204.000015 
	C1062.916626,204.002502 1058.002686,208.888382 1058.001709,218.545364 
	C1057.996338,268.862823 1057.999023,319.180267 1057.998779,370.496521 
M659.974915,237.275955 
	C665.003296,230.091919 664.632568,228.265106 657.136292,222.541443 
	C655.820068,221.536469 654.767212,220.179123 653.427856,219.213028 
	C627.981934,200.857986 599.403687,197.403778 569.598511,203.202469 
	C538.872498,209.180313 516.578857,227.164810 503.383392,255.510742 
	C494.663422,274.242645 492.251801,294.057037 495.879395,314.686523 
	C501.250336,345.229797 517.188965,368.115723 544.260437,382.987244 
	C564.737549,394.236206 587.051331,396.087433 609.656250,392.814789 
	C629.514709,389.939789 646.668152,380.798279 660.947632,366.539337 
	C666.013855,361.480438 665.982788,358.503540 660.805176,353.311493 
	C655.627380,348.119141 650.440002,342.936279 645.245544,337.760529 
	C641.595581,334.123749 637.756714,333.963654 634.021606,337.415619 
	C620.704224,349.723663 605.311768,355.605316 586.927429,354.089355 
	C568.303040,352.553619 548.991577,338.414978 542.871582,320.848328 
	C536.488708,302.527252 537.003357,284.631561 546.340393,267.372894 
	C555.781311,249.922119 570.933411,240.942062 590.355774,240.183685 
	C606.429993,239.556015 620.418335,246.118561 632.761230,256.246857 
	C637.421143,260.070679 639.600281,260.072906 643.760620,255.660126 
	C649.197754,249.893082 654.339355,243.847351 659.974915,237.275955 
z"/>
<path fill="#0069AB" opacity="1.000000" stroke="none" 
	d="
M1404.967773,376.008240 
	C1390.718262,385.274811 1375.779175,391.237152 1359.008423,393.172272 
	C1337.747437,395.625397 1317.539429,392.721893 1298.570312,383.079071 
	C1271.492432,369.314178 1255.099976,347.118164 1248.965332,317.395142 
	C1243.546509,291.140686 1247.879883,266.371521 1262.696045,244.196518 
	C1277.572754,221.931076 1298.514404,207.927643 1325.229736,202.919861 
	C1345.671143,199.088165 1365.572876,200.384674 1384.950073,207.957291 
	C1404.753174,215.696365 1420.279419,228.576111 1431.432007,246.808517 
	C1442.896362,265.550598 1446.725464,286.073944 1444.791382,307.498352 
	C1443.191650,325.220795 1437.208740,341.838409 1425.608643,355.671875 
	C1419.494263,362.963287 1412.122559,369.200287 1404.967773,376.008240 
M1323.734253,349.925720 
	C1332.807007,353.638214 1342.110107,354.974884 1351.979858,354.096863 
	C1367.359253,352.728668 1379.808350,346.032257 1388.898560,333.951569 
	C1401.535278,317.157562 1404.023438,298.206787 1397.861450,278.271210 
	C1394.853394,268.539246 1389.552002,259.790192 1381.587402,253.412567 
	C1368.492554,242.927170 1353.533691,237.978455 1336.539673,241.000443 
	C1326.446411,242.795303 1317.279663,246.617447 1309.796753,253.750580 
	C1295.052612,267.805573 1289.281738,285.025238 1291.962402,305.195831 
	C1294.648193,325.403687 1304.733887,340.348145 1323.734253,349.925720 
z"/>
<path fill="#0069AB" opacity="1.000000" stroke="none" 
	d="
M697.968201,214.904709 
	C698.530273,208.561676 702.909607,204.065704 709.164795,204.042786 
	C736.826843,203.941391 764.518677,203.211929 792.141174,204.256683 
	C809.489624,204.912842 825.812256,210.585693 838.271667,223.829819 
	C847.654114,233.803284 852.223328,245.872375 853.026917,259.500946 
	C853.769165,272.088287 852.779724,284.278961 847.087219,295.860809 
	C841.496155,307.236420 832.676575,315.186005 821.751648,321.058441 
	C816.218445,324.032684 815.514954,325.864471 819.036621,331.016937 
	C829.697632,346.614624 840.522888,362.100372 851.123962,377.738342 
	C852.862000,380.302124 855.181885,382.916687 853.145691,386.740570 
	C851.183167,390.426270 848.380798,391.151398 844.568054,391.068359 
	C835.240601,390.865326 825.895203,390.737976 816.578064,391.109344 
	C811.646729,391.305939 808.636902,389.465515 806.041016,385.465973 
	C795.302429,368.921204 784.269348,352.567383 773.561951,336.002838 
	C771.480957,332.783630 769.154724,331.743866 765.464539,331.918213 
	C759.146301,332.216736 752.796692,332.196167 746.474365,331.948639 
	C741.804077,331.765808 739.869690,333.432159 739.931946,338.268585 
	C740.120667,352.930573 740.011108,367.596558 739.993103,382.260986 
	C739.985596,388.367737 737.374207,390.986298 731.303284,390.998993 
	C722.638000,391.017090 713.972107,391.053894 705.307495,390.972443 
	C701.795044,390.939453 698.711975,390.011017 697.990906,384.996826 
	C697.976013,327.732330 697.972107,271.318512 697.968201,214.904709 
M739.998840,264.500671 
	C739.999756,272.163818 740.075195,279.827911 739.973694,287.489716 
	C739.912537,292.104858 742.021057,294.068909 746.597534,294.031708 
	C758.591187,293.934235 770.609558,294.456055 782.572998,293.846741 
	C791.488037,293.392700 800.237061,291.026367 805.892456,283.210999 
	C812.260254,274.411133 812.046387,264.602722 807.490356,255.364090 
	C803.244446,246.754333 794.646423,243.563278 785.688293,243.160095 
	C772.226074,242.554153 758.716370,243.031738 745.227295,242.969894 
	C741.369934,242.952209 739.891357,244.804504 739.973877,248.508743 
	C740.085144,253.503937 739.999878,258.503510 739.998840,264.500671 
z"/>
<path fill="#0069AB" opacity="1.000000" stroke="none" 
	d="
M1057.998779,369.997131 
	C1057.999023,319.180267 1057.996338,268.862823 1058.001709,218.545364 
	C1058.002686,208.888382 1062.916626,204.002502 1072.610596,204.000015 
	C1093.104126,203.994766 1113.598145,203.912155 1134.091064,204.021973 
	C1156.834961,204.143860 1177.849609,210.631897 1195.670044,224.561050 
	C1214.424438,239.220047 1225.880371,258.746368 1229.098145,282.847717 
	C1231.772217,302.875061 1229.284790,322.007935 1220.308960,340.048553 
	C1212.743652,355.254456 1201.455811,367.268158 1186.839111,376.091736 
	C1173.546509,384.116028 1159.192261,389.344635 1143.723755,389.858765 
	C1117.635132,390.725861 1091.516113,390.698761 1065.408936,390.967773 
	C1061.027710,391.012939 1058.089111,387.906830 1058.016602,383.492279 
	C1057.945435,379.161438 1057.999634,374.828522 1057.998779,369.997131 
M1100.548096,247.806808 
	C1100.367065,249.621231 1100.030151,251.435501 1100.028198,253.250122 
	C1099.995117,282.701630 1099.987183,312.153168 1100.040771,341.604614 
	C1100.044678,343.735687 1100.566284,345.865875 1101.010864,348.758331 
	C1102.479370,349.836487 1103.953491,351.854309 1105.415405,351.845490 
	C1118.185303,351.768280 1131.098755,352.406921 1143.682251,350.706451 
	C1157.473755,348.842773 1169.137451,341.641846 1176.802612,329.583527 
	C1184.758057,317.068787 1187.068359,303.412476 1185.177368,288.508026 
	C1182.328003,266.049133 1166.531982,247.818100 1144.333252,244.310257 
	C1131.339111,242.256927 1117.851562,243.218475 1104.584717,243.175568 
	C1103.328369,243.171494 1102.063843,245.687119 1100.548096,247.806808 
z"/>
<path fill="#0069AB" opacity="1.000000" stroke="none" 
	d="
M1010.166626,310.000305 
	C1009.583069,315.292267 1005.850586,316.005829 1001.545410,316.002716 
	C978.057434,315.985779 954.569458,315.989410 931.081482,315.999084 
	C924.134827,316.001923 923.014954,317.124176 923.003113,324.023346 
	C922.991089,331.019745 922.961304,338.016479 923.013062,345.012512 
	C923.058411,351.130951 924.942200,352.994781 930.958435,352.996368 
	C958.944092,353.003784 986.929749,352.996002 1014.915405,353.002838 
	C1021.745117,353.004517 1023.885193,355.049683 1023.953613,361.810730 
	C1024.022705,368.639862 1024.018799,375.470734 1023.953369,382.299927 
	C1023.896667,388.214386 1021.046265,390.997864 1015.181335,390.998657 
	C973.369446,391.004395 931.557495,391.004730 889.745605,390.998688 
	C883.934998,390.997833 881.018921,388.159729 881.016052,382.244202 
	C880.989319,327.105774 880.981873,271.967377 881.022705,216.828964 
	C881.028198,209.454010 886.451599,204.029602 893.799377,204.021439 
	C933.945496,203.976807 974.091553,203.985275 1014.237671,204.016190 
	C1020.086914,204.020691 1021.981201,205.982300 1021.994995,211.699646 
	C1022.013489,219.362335 1022.015198,227.025162 1021.993958,234.687836 
	C1021.978455,240.253189 1020.234131,241.987717 1014.523071,241.991653 
	C986.703979,242.010864 958.884888,241.997772 931.065796,242.004379 
	C925.025574,242.005814 923.064514,243.896912 923.013794,249.900269 
	C922.958923,256.396454 922.985840,262.893555 923.005249,269.390167 
	C923.025208,276.064453 924.898010,277.987549 931.500977,277.992889 
	C955.155518,278.011993 978.810242,278.049866 1002.464417,277.952698 
	C1006.446106,277.936371 1009.254761,278.976227 1010.046204,284.087372 
	C1010.095703,293.288055 1010.131165,301.644165 1010.166626,310.000305 
z"/>
<path fill="#0069AB" opacity="1.000000" stroke="none" 
	d="
M659.791504,237.598724 
	C654.339355,243.847351 649.197754,249.893082 643.760620,255.660126 
	C639.600281,260.072906 637.421143,260.070679 632.761230,256.246857 
	C620.418335,246.118561 606.429993,239.556015 590.355774,240.183685 
	C570.933411,240.942062 555.781311,249.922119 546.340393,267.372894 
	C537.003357,284.631561 536.488708,302.527252 542.871582,320.848328 
	C548.991577,338.414978 568.303040,352.553619 586.927429,354.089355 
	C605.311768,355.605316 620.704224,349.723663 634.021606,337.415619 
	C637.756714,333.963654 641.595581,334.123749 645.245544,337.760529 
	C650.440002,342.936279 655.627380,348.119141 660.805176,353.311493 
	C665.982788,358.503540 666.013855,361.480438 660.947632,366.539337 
	C646.668152,380.798279 629.514709,389.939789 609.656250,392.814789 
	C587.051331,396.087433 564.737549,394.236206 544.260437,382.987244 
	C517.188965,368.115723 501.250336,345.229797 495.879395,314.686523 
	C492.251801,294.057037 494.663422,274.242645 503.383392,255.510742 
	C516.578857,227.164810 538.872498,209.180313 569.598511,203.202469 
	C599.403687,197.403778 627.981934,200.857986 653.427856,219.213028 
	C654.767212,220.179123 655.820068,221.536469 657.136292,222.541443 
	C664.632568,228.265106 665.003296,230.091919 659.791504,237.598724 
z"/>
<path fill="#0080BF" opacity="1.000000" stroke="none" 
	d="
M697.612061,215.157654 
	C697.972107,271.318512 697.976013,327.732330 697.974609,384.620636 
	C697.646606,383.896240 697.042542,382.697540 697.041565,381.498383 
	C696.997131,326.792480 697.004639,272.086578 697.018066,217.380646 
	C697.018188,216.723953 697.173157,216.067291 697.612061,215.157654 
z"/>
<path fill="#0000FF" opacity="1.000000" stroke="none" 
	d="
M1010.505188,309.740753 
	C1010.131165,301.644165 1010.095703,293.288055 1010.113403,284.466064 
	C1010.392334,292.493896 1010.618042,300.987549 1010.505188,309.740753 
z"/>
<path fill="#000000" opacity="1.000000" stroke="none" 
	d="
M1323.396973,349.739746 
	C1304.733887,340.348145 1294.648193,325.403687 1291.962402,305.195831 
	C1289.281738,285.025238 1295.052612,267.805573 1309.796753,253.750580 
	C1317.279663,246.617447 1326.446411,242.795303 1336.539673,241.000443 
	C1353.533691,237.978455 1368.492554,242.927170 1381.587402,253.412567 
	C1389.552002,259.790192 1394.853394,268.539246 1397.861450,278.271210 
	C1404.023438,298.206787 1401.535278,317.157562 1388.898560,333.951569 
	C1379.808350,346.032257 1367.359253,352.728668 1351.979858,354.096863 
	C1342.110107,354.974884 1332.807007,353.638214 1323.396973,349.739746 
z"/>
<path fill="#000000" opacity="1.000000" stroke="none" 
	d="
M739.998901,264.000916 
	C739.999878,258.503510 740.085144,253.503937 739.973877,248.508743 
	C739.891357,244.804504 741.369934,242.952209 745.227295,242.969894 
	C758.716370,243.031738 772.226074,242.554153 785.688293,243.160095 
	C794.646423,243.563278 803.244446,246.754333 807.490356,255.364090 
	C812.046387,264.602722 812.260254,274.411133 805.892456,283.210999 
	C800.237061,291.026367 791.488037,293.392700 782.572998,293.846741 
	C770.609558,294.456055 758.591187,293.934235 746.597534,294.031708 
	C742.021057,294.068909 739.912537,292.104858 739.973694,287.489716 
	C740.075195,279.827911 739.999756,272.163818 739.998901,264.000916 
z"/>
<path fill="#000000" opacity="1.000000" stroke="none" 
	d="
M1100.803101,247.032944 
	C1102.063843,245.687119 1103.328369,243.171494 1104.584717,243.175568 
	C1117.851562,243.218475 1131.339111,242.256927 1144.333252,244.310257 
	C1166.531982,247.818100 1182.328003,266.049133 1185.177368,288.508026 
	C1187.068359,303.412476 1184.758057,317.068787 1176.802612,329.583527 
	C1169.137451,341.641846 1157.473755,348.842773 1143.682251,350.706451 
	C1131.098755,352.406921 1118.185303,351.768280 1105.415405,351.845490 
	C1103.953491,351.854309 1102.479370,349.836487 1100.986206,347.911743 
	C1100.908813,313.721100 1100.855957,280.377014 1100.803101,247.032944 
z"/>
<path fill="#0055AA" opacity="1.000000" stroke="none" 
	d="
M1100.675537,247.419891 
	C1100.855957,280.377014 1100.908813,313.721100 1100.904297,347.530823 
	C1100.566284,345.865875 1100.044678,343.735687 1100.040771,341.604614 
	C1099.987183,312.153168 1099.995117,282.701630 1100.028198,253.250122 
	C1100.030151,251.435501 1100.367065,249.621231 1100.675537,247.419891 
z"/>
</svg>