<svg version="1.1" id="Layer_1" xmlns="http://www.w3.org/2000/svg" xmlns:xlink="http://www.w3.org/1999/xlink" x="0px" y="0px"
	 width="100%" viewBox="0 0 487 583" enable-background="new 0 0 487 583" xml:space="preserve">
<path fill="#000000" opacity="1.000000" stroke="none" 
	d="
M250.000000,584.000000 
	C166.686020,584.000000 83.872032,584.000000 1.029024,584.000000 
	C1.029024,389.731415 1.029024,195.462830 1.029024,1.097115 
	C163.230621,1.097115 325.461304,1.097115 487.846008,1.097115 
	C487.846008,195.333237 487.846008,389.666595 487.846008,584.000000 
	C408.796173,584.000000 329.648102,584.000000 250.000000,584.000000 
M237.265564,158.729996 
	C239.582245,160.157867 241.726822,162.218155 244.245560,162.903610 
	C254.881622,165.798203 264.514496,162.961456 273.487518,157.018082 
	C279.463776,153.059677 283.879425,147.881653 285.452820,140.854568 
	C285.973022,138.531250 285.453766,135.611267 284.442627,133.407928 
	C283.358337,131.045227 281.135071,129.205185 278.960419,126.570702 
	C269.538940,124.082031 260.396423,123.952660 251.233047,128.222977 
	C243.276611,131.930832 237.354568,137.270523 233.885559,145.330170 
	C231.724472,150.351074 233.057068,155.981674 237.265564,158.729996 
M330.605621,401.149078 
	C326.389374,394.919067 323.140442,387.646027 317.767578,382.663208 
	C304.056976,369.948212 287.114594,365.960510 269.184357,370.605347 
	C249.221817,375.776611 236.036575,388.642059 232.002365,409.510895 
	C228.551331,427.363068 232.713272,443.276398 245.773193,456.133209 
	C256.977203,467.162994 270.962250,471.027069 286.503174,470.026184 
	C302.070282,469.023621 314.683990,462.399780 323.932556,449.977844 
	C334.842560,435.324371 335.076965,418.860352 330.605621,401.149078 
M355.000000,376.354431 
	C354.805115,390.558502 365.489868,403.898254 379.440399,407.047119 
	C390.838379,409.619843 401.429657,407.606232 411.475128,402.076294 
	C432.276978,390.625092 445.816559,363.949097 439.878357,339.661072 
	C435.999115,323.794312 424.993225,314.361816 407.935577,314.038696 
	C388.394867,313.668579 374.685669,323.847626 363.996521,339.106232 
	C356.346619,350.026276 353.783173,362.249817 355.000000,376.354431 
M175.406860,329.000000 
	C172.244873,329.000183 169.077637,328.882111 165.921890,329.022461 
	C156.014252,329.463135 148.235794,334.731567 143.505005,342.564606 
	C134.353500,357.717224 135.897552,374.056671 144.600464,388.531189 
	C154.846054,405.571472 169.525940,415.953339 191.277374,415.345306 
	C208.930496,414.851746 222.112579,400.269257 223.047058,383.495758 
	C223.788727,370.183014 219.751328,358.340820 211.491867,348.314728 
	C202.501602,337.401550 191.685684,328.855225 175.406860,329.000000 
M426.057648,210.558319 
	C420.427277,204.633865 413.218201,202.356750 405.418304,200.610214 
	C393.153717,197.863892 378.691315,206.004440 373.823242,217.114136 
	C368.269501,229.788589 369.242371,241.937149 373.784027,254.537170 
	C379.851013,271.369202 396.134705,285.407990 415.360046,284.103088 
	C426.721313,283.331940 440.362061,272.880798 441.797028,261.645996 
	C442.760406,254.103394 442.618866,246.277008 441.854645,238.690109 
	C440.728058,227.506149 434.830017,218.510315 426.057648,210.558319 
M185.635468,259.189728 
	C182.214844,249.999161 177.527130,241.696808 167.749405,238.098663 
	C151.881119,232.259232 139.652100,239.188217 131.384338,251.685959 
	C122.274445,265.456726 121.043167,281.311951 126.244652,296.760620 
	C132.129669,314.239410 144.377823,321.260284 162.285660,316.972382 
	C172.340836,314.564789 185.130035,299.123596 185.870270,287.543396 
	C186.455246,278.392242 185.941956,269.170868 185.635468,259.189728 
M193.877884,223.591141 
	C205.577835,219.858475 214.041855,212.283463 220.085632,201.732758 
	C224.330460,194.322540 225.482544,186.150772 223.382858,178.285461 
	C221.386856,170.808594 214.153870,164.475540 199.625870,166.934982 
	C178.181396,170.565308 163.936493,186.950302 164.000031,207.985458 
	C164.022064,215.274353 168.486130,222.380569 175.589172,223.773590 
	C181.221786,224.878220 187.254135,223.944626 193.877884,223.591141 
M337.492096,183.087494 
	C341.065338,183.391663 344.637329,183.938141 348.212067,183.957047 
	C361.944855,184.029709 369.318787,172.369843 364.243317,159.567841 
	C357.448578,142.429428 338.363251,131.814911 321.960052,133.093506 
	C308.435913,134.147690 301.578003,142.919846 306.056427,156.497543 
	C310.843872,171.012268 321.878754,179.416351 337.492096,183.087494 
M212.035629,111.076187 
	C213.291687,113.151031 214.237793,115.514244 215.855270,117.252838 
	C224.784332,126.850380 236.410019,128.340591 248.405457,126.542572 
	C252.212189,125.971977 256.410461,122.778481 258.882233,119.586899 
	C264.678711,112.102455 259.152954,102.378700 252.307877,97.110802 
	C243.978058,90.700249 234.000702,89.738716 224.249771,91.242996 
	C213.491608,92.902634 208.677399,102.047203 212.035629,111.076187 
M354.149597,102.546997 
	C351.185608,100.421120 348.492737,97.155426 345.208893,96.374413 
	C333.454620,93.578835 321.996338,94.909203 311.695953,101.768257 
	C306.330963,105.340790 301.996124,109.854935 303.064545,117.052864 
	C303.869080,122.472977 308.026001,125.611397 312.691711,126.650177 
	C326.359833,129.693268 339.672119,129.073700 350.737885,118.988884 
	C355.385315,114.753441 357.947052,109.102394 354.149597,102.546997 
M125.463257,101.971886 
	C135.493576,109.340302 146.345459,111.225647 158.192139,107.038277 
	C163.588913,105.130707 167.295044,101.373558 167.777466,95.891769 
	C168.233109,90.714447 165.804764,86.228745 161.234329,82.980644 
	C153.423981,77.430061 144.483994,76.746399 135.821243,78.340271 
	C123.414589,80.622993 117.534943,89.538834 125.463257,101.971886 
M402.380707,110.000000 
	C408.823914,108.356583 415.468994,107.248146 421.651825,104.914825 
	C427.490448,102.711441 429.795929,97.648338 428.944336,91.334503 
	C428.255432,86.226799 423.824005,84.460526 419.850067,83.554398 
	C406.779510,80.574120 394.203400,81.578484 382.724457,89.555443 
	C378.789124,92.290176 377.039307,96.123001 378.285583,100.081009 
	C379.233093,103.090111 382.155548,106.679977 384.995239,107.628502 
	C390.159180,109.353378 395.914703,109.307144 402.380707,110.000000 
M71.587173,100.059738 
	C78.261925,95.619354 79.081696,88.167320 74.227043,82.591988 
	C67.731491,75.132172 46.829288,74.531082 38.141914,83.400169 
	C32.800491,88.853310 33.763393,96.781822 40.159676,101.023354 
	C48.868805,106.798599 62.334663,106.582588 71.587173,100.059738 
z"/>
<path fill="#0069AB" opacity="1.000000" stroke="none" 
	d="
M330.761230,401.516357 
	C335.076965,418.860352 334.842560,435.324371 323.932556,449.977844 
	C314.683990,462.399780 302.070282,469.023621 286.503174,470.026184 
	C270.962250,471.027069 256.977203,467.162994 245.773193,456.133209 
	C232.713272,443.276398 228.551331,427.363068 232.002365,409.510895 
	C236.036575,388.642059 249.221817,375.776611 269.184357,370.605347 
	C287.114594,365.960510 304.056976,369.948212 317.767578,382.663208 
	C323.140442,387.646027 326.389374,394.919067 330.761230,401.516357 
z"/>
<path fill="#89C0E8" opacity="1.000000" stroke="none" 
	d="
M355.000000,375.872101 
	C353.783173,362.249817 356.346619,350.026276 363.996521,339.106232 
	C374.685669,323.847626 388.394867,313.668579 407.935577,314.038696 
	C424.993225,314.361816 435.999115,323.794312 439.878357,339.661072 
	C445.816559,363.949097 432.276978,390.625092 411.475128,402.076294 
	C401.429657,407.606232 390.838379,409.619843 379.440399,407.047119 
	C365.489868,403.898254 354.805115,390.558502 355.000000,375.872101 
z"/>
<path fill="#0069AB" opacity="1.000000" stroke="none" 
	d="
M175.886627,329.000000 
	C191.685684,328.855225 202.501602,337.401550 211.491867,348.314728 
	C219.751328,358.340820 223.788727,370.183014 223.047058,383.495758 
	C222.112579,400.269257 208.930496,414.851746 191.277374,415.345306 
	C169.525940,415.953339 154.846054,405.571472 144.600464,388.531189 
	C135.897552,374.056671 134.353500,357.717224 143.505005,342.564606 
	C148.235794,334.731567 156.014252,329.463135 165.921890,329.022461 
	C169.077637,328.882111 172.244873,329.000183 175.886627,329.000000 
z"/>
<path fill="#89C0E8" opacity="1.000000" stroke="none" 
	d="
M426.366760,210.755829 
	C434.830017,218.510315 440.728058,227.506149 441.854645,238.690109 
	C442.618866,246.277008 442.760406,254.103394 441.797028,261.645996 
	C440.362061,272.880798 426.721313,283.331940 415.360046,284.103088 
	C396.134705,285.407990 379.851013,271.369202 373.784027,254.537170 
	C369.242371,241.937149 368.269501,229.788589 373.823242,217.114136 
	C378.691315,206.004440 393.153717,197.863892 405.418304,200.610214 
	C413.218201,202.356750 420.427277,204.633865 426.366760,210.755829 
z"/>
<path fill="#0069AB" opacity="1.000000" stroke="none" 
	d="
M185.775925,259.585205 
	C185.941956,269.170868 186.455246,278.392242 185.870270,287.543396 
	C185.130035,299.123596 172.340836,314.564789 162.285660,316.972382 
	C144.377823,321.260284 132.129669,314.239410 126.244652,296.760620 
	C121.043167,281.311951 122.274445,265.456726 131.384338,251.685959 
	C139.652100,239.188217 151.881119,232.259232 167.749405,238.098663 
	C177.527130,241.696808 182.214844,249.999161 185.775925,259.585205 
z"/>
<path fill="#0069AB" opacity="1.000000" stroke="none" 
	d="
M193.493439,223.753601 
	C187.254135,223.944626 181.221786,224.878220 175.589172,223.773590 
	C168.486130,222.380569 164.022064,215.274353 164.000031,207.985458 
	C163.936493,186.950302 178.181396,170.565308 199.625870,166.934982 
	C214.153870,164.475540 221.386856,170.808594 223.382858,178.285461 
	C225.482544,186.150772 224.330460,194.322540 220.085632,201.732758 
	C214.041855,212.283463 205.577835,219.858475 193.493439,223.753601 
z"/>
<path fill="#89C0E8" opacity="1.000000" stroke="none" 
	d="
M337.056824,183.048950 
	C321.878754,179.416351 310.843872,171.012268 306.056427,156.497543 
	C301.578003,142.919846 308.435913,134.147690 321.960052,133.093506 
	C338.363251,131.814911 357.448578,142.429428 364.243317,159.567841 
	C369.318787,172.369843 361.944855,184.029709 348.212067,183.957047 
	C344.637329,183.938141 341.065338,183.391663 337.056824,183.048950 
z"/>
<path fill="#89C0E8" opacity="1.000000" stroke="none" 
	d="
M212.013245,110.666428 
	C208.677399,102.047203 213.491608,92.902634 224.249771,91.242996 
	C234.000702,89.738716 243.978058,90.700249 252.307877,97.110802 
	C259.152954,102.378700 264.678711,112.102455 258.882233,119.586899 
	C256.410461,122.778481 252.212189,125.971977 248.405457,126.542572 
	C236.410019,128.340591 224.784332,126.850380 215.855270,117.252838 
	C214.237793,115.514244 213.291687,113.151031 212.013245,110.666428 
z"/>
<path fill="#0069AB" opacity="1.000000" stroke="none" 
	d="
M279.408905,127.137039 
	C281.135071,129.205185 283.358337,131.045227 284.442627,133.407928 
	C285.453766,135.611267 285.973022,138.531250 285.452820,140.854568 
	C283.879425,147.881653 279.463776,153.059677 273.487518,157.018082 
	C264.514496,162.961456 254.881622,165.798203 244.245560,162.903610 
	C241.726822,162.218155 239.582245,160.157867 237.098328,157.998306 
	C233.965866,147.441864 238.005157,140.636673 245.560486,134.449905 
	C254.493164,127.135284 264.666229,127.936195 274.949493,128.024811 
	C276.433289,128.037598 277.922302,127.447922 279.408905,127.137039 
z"/>
<path fill="#0069AB" opacity="1.000000" stroke="none" 
	d="
M354.389709,102.854889 
	C357.947052,109.102394 355.385315,114.753441 350.737885,118.988884 
	C339.672119,129.073700 326.359833,129.693268 312.691711,126.650177 
	C308.026001,125.611397 303.869080,122.472977 303.064545,117.052864 
	C301.996124,109.854935 306.330963,105.340790 311.695953,101.768257 
	C321.996338,94.909203 333.454620,93.578835 345.208893,96.374413 
	C348.492737,97.155426 351.185608,100.421120 354.389709,102.854889 
z"/>
<path fill="#89C0E8" opacity="1.000000" stroke="none" 
	d="
M125.201973,101.691391 
	C117.534943,89.538834 123.414589,80.622993 135.821243,78.340271 
	C144.483994,76.746399 153.423981,77.430061 161.234329,82.980644 
	C165.804764,86.228745 168.233109,90.714447 167.777466,95.891769 
	C167.295044,101.373558 163.588913,105.130707 158.192139,107.038277 
	C146.345459,111.225647 135.493576,109.340302 125.201973,101.691391 
z"/>
<path fill="#0069AB" opacity="1.000000" stroke="none" 
	d="
M401.902039,110.000000 
	C395.914703,109.307144 390.159180,109.353378 384.995239,107.628502 
	C382.155548,106.679977 379.233093,103.090111 378.285583,100.081009 
	C377.039307,96.123001 378.789124,92.290176 382.724457,89.555443 
	C394.203400,81.578484 406.779510,80.574120 419.850067,83.554398 
	C423.824005,84.460526 428.255432,86.226799 428.944336,91.334503 
	C429.795929,97.648338 427.490448,102.711441 421.651825,104.914825 
	C415.468994,107.248146 408.823914,108.356583 401.902039,110.000000 
z"/>
<path fill="#89C0E8" opacity="1.000000" stroke="none" 
	d="
M71.290085,100.294235 
	C62.334663,106.582588 48.868805,106.798599 40.159676,101.023354 
	C33.763393,96.781822 32.800491,88.853310 38.141914,83.400169 
	C46.829288,74.531082 67.731491,75.132172 74.227043,82.591988 
	C79.081696,88.167320 78.261925,95.619354 71.290085,100.294235 
z"/>
<path fill="#0069AB" opacity="1.000000" stroke="none" 
	d="
M279.184662,126.853867 
	C277.922302,127.447922 276.433289,128.037598 274.949493,128.024811 
	C264.666229,127.936195 254.493164,127.135284 245.560486,134.449905 
	C238.005157,140.636673 233.965866,147.441864 236.944702,157.690979 
	C233.057068,155.981674 231.724472,150.351074 233.885559,145.330170 
	C237.354568,137.270523 243.276611,131.930832 251.233047,128.222977 
	C260.396423,123.952660 269.538940,124.082031 279.184662,126.853867 
z"/>
</svg>